PathFileType	4	(X/Y/Z)	\\Move.snu.ac.kr\motion\Animal\091204_091205_Bird\091205_bird\Project 2\Capture day 2\Session 1\pigeon_028.trc
DataRate	CameraRate	NumFrames	NumMarkers	Units	OrigDataRate	OrigDataStartFrame	OrigNumFrames
240.0	240.0	13	14	mm	240.0	267	6061
Frame#	Time	14MarkersBird:Head			14MarkersBird:C_back			14MarkersBird:Spine			14MarkersBird:L-shoulder			14MarkersBird:L-elbow			14MarkersBird:L-wrist			14MarkersBird:L-hand			14MarkersBird:R-shoulder			14MarkersBird:R-elbow			14MarkersBird:R-Wrist			14MarkersBird:R-hand			14MarkersBird:C_Tail			14MarkersBird:L-Tale			14MarkersBird:R-Tale			
		X1	Y1	Z1	X2	Y2	Z2	X3	Y3	Z3	X4	Y4	Z4	X5	Y5	Z5	X6	Y6	Z6	X7	Y7	Z7	X8	Y8	Z8	X9	Y9	Z9	X10	Y10	Z10	X11	Y11	Z11	X12	Y12	Z12	X13	Y13	Z13	X14	Y14	Z14	

4561	19.000	383.29990	478.52383	212.87949	330.77515	474.92169	248.94823	288.69171	458.81931	281.10410	344.58380	474.20123	216.31386	318.92578	465.10831	201.25572	344.23215	447.21201	169.88229	347.63016	435.73160	145.03490	372.44229	468.46072	251.14410	376.06290	459.08914	277.35098	412.51657	439.74747	268.16678	440.67532	415.71838	276.65482	205.17433	378.99429	326.96466	198.19319	436.61548	234.31783	302.24033	416.45599	383.33176	
4562	19.004	394.73743	474.93362	204.41692	342.25345	472.19061	240.60147	300.11954	455.81891	272.39539	356.34503	471.28372	207.80917	330.46454	460.10574	193.10097	360.75677	443.20505	165.42012	368.70059	427.51236	144.66330	384.05627	465.83463	242.50735	387.41034	454.26678	267.99734	422.39990	435.44907	252.99316	449.03113	408.11362	254.67908	217.73589	374.72229	318.62393	209.09245	431.17203	226.59099	314.16327	411.90924	374.23474	
4563	19.008	406.38467	471.26855	195.85023	353.93390	469.27466	232.01341	311.66922	452.77411	263.63971	368.28116	468.27444	199.18547	341.25830	456.16986	185.37044	375.13083	442.15564	160.28714	386.88739	423.84921	144.21043	395.77026	463.21649	233.77443	398.10828	450.76535	259.57639	432.06613	434.17563	240.40295	456.77414	404.79932	236.16110	230.04324	370.53452	309.53702	220.54527	425.62653	218.21457	326.85333	407.07968	364.92636	
4564	19.013	418.28452	467.52966	187.19951	365.89679	466.09210	223.16251	323.35858	449.64081	254.80873	380.35983	465.05560	190.44727	351.38425	453.34604	177.99380	387.28793	443.36273	154.05028	401.70285	423.92603	141.92690	407.53412	460.35318	224.95801	408.28259	448.49652	252.09377	441.92654	435.27731	230.63609	464.83984	404.72971	222.00793	242.31735	366.15463	299.67618	232.43254	420.21548	209.35281	339.78369	401.96866	355.39246	
4565	19.017	430.43839	463.70212	178.48624	378.17459	462.60745	214.08974	335.19510	446.36481	245.76791	392.55698	461.54303	181.63089	361.10617	451.58356	171.05876	397.50000	445.92584	146.74120	413.10870	426.15344	136.80785	419.31622	457.11362	216.08260	417.86261	447.31848	245.29074	452.00986	437.91599	223.34418	473.54587	406.50183	212.38756	254.69141	361.55432	289.23090	244.60638	415.18210	200.17624	352.40540	396.81403	345.70886	
4566	19.021	442.81339	459.77258	169.71593	390.74991	458.83005	204.88287	347.17810	442.92606	236.43776	404.86002	457.71741	172.78644	370.82645	450.67444	164.73407	406.22537	449.06210	138.71967	421.39777	428.85199	128.94383	431.10660	453.51260	207.18054	426.69208	447.05673	238.62869	462.10135	441.34824	217.86180	482.63763	408.90576	206.86841	267.17477	356.86194	278.48465	256.90918	410.77707	190.81479	364.33395	392.01105	336.05347	
4567	19.025	455.35342	455.73947	160.89906	403.56418	454.79919	195.63809	359.29272	439.35718	226.90485	417.25131	453.61496	163.95264	380.98444	450.24429	159.16025	413.99728	452.27875	130.51349	426.95245	431.04065	119.33694	442.88586	449.66385	198.27347	434.70825	447.47653	231.38165	471.91937	445.08099	213.48955	491.60837	411.35199	204.74661	279.67938	352.24658	267.70645	269.20248	407.24661	181.35233	375.40753	388.07236	326.67090	
4568	19.029	467.97104	451.60959	152.07719	416.53040	450.57355	186.42963	371.52106	435.69522	217.33827	429.70407	449.30936	155.15627	391.93024	449.84152	154.35376	421.38803	455.32800	122.68636	430.08871	432.70480	109.43544	454.60574	445.74203	189.35081	442.05551	448.21573	222.88371	481.19260	448.86929	209.54840	499.93091	413.93588	205.28128	292.05103	347.86362	257.10989	281.40973	404.73117	171.83661	385.64252	385.55637	317.79044	
4569	19.033	480.55991	447.41046	143.30927	429.54987	446.24023	177.31122	383.83566	431.91733	207.84975	442.17755	444.88446	146.42599	403.83731	449.10364	150.17787	428.97800	458.03458	115.70916	431.27255	434.47284	100.68488	466.20676	441.92548	180.35973	449.05896	448.79166	212.76868	489.69662	452.57712	205.29626	507.07285	417.20303	207.67365	304.08041	343.87463	246.86380	293.51801	403.18860	162.31712	395.19400	384.81610	309.51492	
4570	19.038	493.05734	443.17374	134.63104	442.52780	441.90378	168.31895	396.19241	427.98572	198.50613	454.62415	440.42676	137.77377	416.68253	447.80078	146.32906	437.28558	460.20245	109.77090	431.48969	437.08417	94.13730	477.66061	438.29221	171.23451	456.09674	448.75079	201.11839	497.36362	455.99915	199.98428	512.56104	421.84650	210.88484	315.55936	340.43280	237.07483	305.52530	402.46561	152.92815	404.37805	385.62387	301.71173	
4571	19.042	505.47446	438.91891	126.04100	455.37534	437.62308	159.44902	408.53021	423.88968	189.35582	467.00568	435.99396	129.17778	430.28171	445.77994	142.33124	446.62009	461.66714	104.63461	432.22971	441.03638	90.08228	489.01523	434.75531	161.97223	463.52127	447.79391	188.43217	504.41678	458.83560	193.15022	516.17743	428.38754	213.53407	326.38684	337.60693	227.74377	317.40994	402.37036	143.89900	413.59070	387.10419	294.03989	
4572	19.046	517.85773	434.65857	117.52351	468.00598	433.33795	150.63805	420.79092	419.65808	180.43237	479.30353	431.56900	120.59608	444.38785	443.04507	137.65535	456.92612	462.38358	99.70872	434.93124	446.45065	87.93021	500.39545	431.11649	152.67488	471.70660	445.78601	175.41603	511.33594	460.82971	184.90891	518.14264	436.87943	214.11626	336.61328	335.35532	218.77251	329.16214	402.58258	135.41866	423.06995	388.24371	286.14944	
4573	19.050	530.22375	430.39636	109.05225	480.31796	428.85629	141.79927	432.96924	415.18625	171.56877	491.51669	427.06989	111.99477	458.80539	439.84937	131.87801	467.79755	462.46216	94.28848	440.39429	453.03751	86.53378	511.94153	427.17999	143.50984	481.02167	442.78973	162.69392	518.65619	461.89975	175.92203	519.23059	446.79376	211.49310	346.35968	333.62143	210.05574	340.82394	402.57309	127.44103	432.79926	388.42792	277.86407	
